<?xml version="1.0" encoding="iso-8859-1"?>
<!-- Uploaded to: SVG Repo, www.svgrepo.com, Generator: SVG Repo Mixer Tools -->
<svg version="1.1" id="Layer_1" xmlns="http://www.w3.org/2000/svg" xmlns:xlink="http://www.w3.org/1999/xlink" 
	 viewBox="0 0 512 512" xml:space="preserve">
<polygon style="fill:#EC589B;" points="148.765,39.313 148.765,86.201 79.24,136.636 79.24,39.313 "/>
<rect x="65.619" y="173.24" style="fill:#E6E6E6;" width="380.746" height="330.357"/>
<rect x="65.619" y="173.24" style="fill:#CCCCCC;" width="380.746" height="31.047"/>
<polygon style="fill:#EAA0E3;" points="256,8.398 28.788,173.242 483.211,173.242 "/>
<polygon style="fill:#D3468D;" points="148.765,53.712 148.765,86.201 79.24,136.636 79.24,104.148 "/>
<rect x="164.596" y="233.16" style="fill:#F4C063;" width="182.815" height="169.097"/>
<rect x="144.048" y="402.257" style="fill:#CCCCCC;" width="223.899" height="35.352"/>
<path style="fill:#EC589B;" d="M218.679,403.365v-4.566c0-22.776,18.463-41.239,41.239-41.239l0,0
	c22.776,0,41.239,18.463,41.239,41.239v4.566"/>
<circle style="fill:#4C4646;" cx="256.003" cy="108.495" r="31.816"/>
<circle style="fill:#F9DCA4;" cx="259.642" cy="307.692" r="49.87"/>
<path style="fill:#E7C080;" d="M232.475,307.689c0-23.635,16.447-43.416,38.518-48.557c-3.648-0.85-7.445-1.314-11.352-1.314
	c-27.543,0-49.87,22.327-49.87,49.87c0,27.543,22.327,49.87,49.87,49.87c3.907,0,7.704-0.464,11.352-1.314
	C248.923,351.106,232.475,331.325,232.475,307.689z"/>
<g>
	<path style="fill:#4D4D4D;" d="M309.512,307.689c0,0,8.044,59.92-8.349,91.109c0-11.389-4.613-21.702-12.076-29.166
		c-7.463-7.463-17.775-12.076-29.165-12.076C287.331,357.41,309.512,335.134,309.512,307.689z"/>
	<path style="fill:#4D4D4D;" d="M309.512,307.689c-55.351,5.673-84.924-35.463-84.924-35.463c9.01-8.906,21.39-14.405,35.056-14.405
		C287.183,257.82,309.512,280.149,309.512,307.689z"/>
</g>
<path d="M446.376,194.77c-4.638,0-8.398,3.76-8.398,8.398v292.034H135.803c-4.638,0-8.398,3.76-8.398,8.398
	c0,4.638,3.76,8.398,8.398,8.398h310.573c4.638,0,8.398-3.76,8.398-8.398V203.169C454.775,198.531,451.014,194.77,446.376,194.77z"
	/>
<path d="M488.143,166.443l-116.621-84.61c-3.756-2.726-9.006-1.889-11.73,1.867c-2.723,3.755-1.888,9.005,1.867,11.73l95.676,69.414
	H54.665L256,18.774l82.767,60.048c3.755,2.723,9.005,1.887,11.73-1.867c2.723-3.755,1.888-9.005-1.867-11.73L260.931,1.6
	c-2.942-2.133-6.922-2.133-9.864,0l-93.904,68.128V39.313c0-4.638-3.76-8.398-8.398-8.398H79.24c-4.638,0-8.398,3.76-8.398,8.398
	v93.043l-46.985,34.087c-2.946,2.138-4.18,5.928-3.056,9.39c1.123,3.461,4.349,5.806,7.988,5.806h28.437v321.962
	c0,4.638,3.76,8.398,8.398,8.398h41.839c4.638,0,8.398-3.76,8.398-8.398c0-4.638-3.76-8.398-8.398-8.398H74.021V181.64h409.19
	c3.639,0,6.864-2.344,7.988-5.806C492.323,172.373,491.089,168.581,488.143,166.443z M87.638,47.711h52.729v34.204L87.638,120.17
	C87.638,120.17,87.638,47.711,87.638,47.711z"/>
<path d="M215.785,108.496c0,22.175,18.041,40.216,40.216,40.216s40.215-18.041,40.215-40.216s-18.04-40.216-40.215-40.216
	S215.785,86.321,215.785,108.496z M279.418,108.496c0,12.913-10.505,23.419-23.418,23.419s-23.419-10.506-23.419-23.419
	S243.086,85.077,256,85.077S279.418,95.583,279.418,108.496z"/>
<path d="M347.405,258.645c4.638,0,8.398-3.76,8.398-8.398V233.16c0-4.638-3.76-8.398-8.398-8.398h-182.81
	c-4.638,0-8.398,3.76-8.398,8.398v160.703h-12.144c-4.638,0-8.398,3.76-8.398,8.398v35.351c0,4.638,3.76,8.398,8.398,8.398h223.895
	c4.638,0,8.398-3.76,8.398-8.398V402.26c0-4.638-3.76-8.398-8.398-8.398h-12.144V279.707c0-4.638-3.76-8.398-8.398-8.398
	s-8.398,3.76-8.398,8.398v114.155h-26.558c11.848-32.741,6.174-81.109,5.449-86.811c-0.128-11.926-3.82-23.343-10.712-33.055
	c-2.684-3.783-7.927-4.673-11.71-1.988c-3.783,2.684-4.673,7.927-1.988,11.71c3.448,4.856,5.742,10.324,6.849,16.09
	c-32.988,0.459-54.522-17.022-63.781-26.553c6.603-4.441,14.546-7.037,23.084-7.037c5.602,0,11.033,1.095,16.139,3.255
	c4.27,1.808,9.199-0.19,11.006-4.462c1.807-4.272-0.19-9.199-4.462-11.006c-7.188-3.041-14.82-4.583-22.683-4.583
	c-32.13,0-58.27,26.139-58.27,58.269c0,21.752,11.989,40.745,29.699,50.755c-11.313,8.111-19.097,20.841-20.543,35.417h-37.534
	V241.557h166.014v8.688C339.006,254.884,342.767,258.645,347.405,258.645z M288.518,358.268c5.442-3.12,10.338-7.083,14.5-11.723
	c-0.203,8.949-0.905,17.1-2.074,24.348C297.589,365.977,293.372,361.702,288.518,358.268z M218.168,307.689
	c0-8.274,2.444-15.983,6.637-22.46c7.085,7.212,19.446,17.606,36.89,24.437c-0.108,1.358,0.094,2.745,0.663,4.033
	c1.322,2.999,4.398,4.996,7.676,4.996c3.098,0,5.863-1.75,7.317-4.332c6.997,1.496,14.599,2.328,22.787,2.238
	c-4.089,18.597-20.689,32.561-40.498,32.561C236.773,349.162,218.168,330.557,218.168,307.689z M259.918,365.958
	c16.43,0,30.081,12.129,32.469,27.903h-64.938C229.837,378.087,243.487,365.958,259.918,365.958z M359.549,410.658v18.555H152.451
	v-18.555H359.549z"/>
<path d="M236.601,303.091c-3.205-1.929-7.445-1.436-10.132,1.156c-2.517,2.427-3.271,6.249-1.859,9.451
	c1.322,2.999,4.398,4.996,7.676,4.996c4.204,0,7.803-3.217,8.33-7.369C241.03,308.067,239.409,304.782,236.601,303.091z"/>
</svg>